<svg width="24" height="24" viewBox="0 0 24 24" fill="none" xmlns="http://www.w3.org/2000/svg">
<path d="M23 12C23 18.0751 18.0751 23 12 23C5.92487 23 1 18.0751 1 12C1 5.92487 5.92487 1 12 1C18.0751 1 23 5.92487 23 12ZM21 12C21 11.1945 20.8942 10.4136 20.6957 9.67069L12.4466 12.6185L11.0747 20.953C11.3789 20.9841 11.6876 21 12 21C16.9706 21 21 16.9706 21 12ZM19.966 7.80759C19.455 6.83867 18.7724 5.97429 17.9586 5.25489L14.4473 9.77968L19.966 7.80759ZM16.3209 4.10313C15.0383 3.39989 13.5659 3 12 3C10.3219 3 8.75115 3.45925 7.40645 4.25891L11.5938 10.1945L16.3209 4.10313ZM5.81054 5.46617C4.07962 7.10642 3 9.42713 3 12C3 15.9625 5.56075 19.3269 9.11765 20.5285L10.5023 12.1168L5.81054 5.46617Z" fill="#8E8E8E"/>
</svg>
