<svg width="24" height="24" viewBox="0 0 24 24" fill="none" xmlns="http://www.w3.org/2000/svg">
<path d="M15 12C15 13.6569 13.6569 15 12 15C10.3431 15 9 13.6569 9 12C9 10.3431 10.3431 9 12 9C13.6569 9 15 10.3431 15 12Z" fill="#8E8E8E"/>
<path d="M7.29129 5.93154L1 12L7.29129 18.0685C9.96124 20.6438 14.0388 20.6438 16.7087 18.0685L23 12L16.7087 5.93154C14.0388 3.35616 9.96124 3.35615 7.29129 5.93154ZM17 12C17 14.7614 14.7614 17 12 17C9.23858 17 7 14.7614 7 12C7 9.23858 9.23858 7 12 7C14.7614 7 17 9.23858 17 12Z" fill="#8E8E8E"/>
</svg>
